# xmcd
#
# Track frame offsets:
#	150
#	19590
#	39404
#	56091
#	70046
#	82938
#	92758
#	104996
#	124964
#	139374
#	153797
#	168306
#	184244
#	205400
#
# Disc length: 2932
#
# Revision: 1
# Processed by: cddbd v1.5.1PL0 Copyright (c) Steve Scherf et al.
# Submitted via: dBpowerAMP V4.0
# Normalized: r0:TRMNUM
#
DISCID=c20b720e
DTITLE=Keith Pearson's Coup de Grass - Crazy Men - Cowboys and Kids
DYEAR=1900
DGENRE=
TTITLE0=Orange blossom special
TTITLE1=Memory of your smile
TTITLE2=Baby you've fallen in love again
TTITLE3=Gone home
TTITLE4=Vladivostok two step
TTITLE5=Talkin' to the lord
TTITLE6=Shall the cricle be unbroken
TTITLE7=Misery
TTITLE8=On my mind
TTITLE9=Crazy men cowboys snd kids
TTITLE10=Top hat ramble
TTITLE11=Picture from life's other side
TTITLE12=Big boy's breakdown
TTITLE13=Please release me
EXTD=
EXTT0=
EXTT1=
EXTT2=
EXTT3=
EXTT4=
EXTT5=
EXTT6=
EXTT7=
EXTT8=
EXTT9=
EXTT10=
EXTT11=
EXTT12=
EXTT13=
PLAYORDER=
